<svg version="1.1" id="Layer_1" xmlns="http://www.w3.org/2000/svg"
                xmlns:xlink="http://www.w3.org/1999/xlink" x="0px" y="0px" viewBox="0 0 192 32"
                style="enable-background:new 0 0 192 32;" xml:space="preserve">
                <style type="text/css">
                    .st0 {
                        fill: #FFFFFF;
                    }

                    .st1 {
                        fill: #EEEEEE;
                    }

                    .st2 {
                        fill: #DEDEDE;
                    }

                    .st3 {
                        fill: #CDCDCD;
                    }

                    .st4 {
                        fill: #BCBCBC;
                    }

                    .st5 {
                        fill: #A4A4A4;
                    }

                    .st6 {
                        fill: #8D8D8D;
                    }

                    .st7 {
                        fill: #6A6A6A;
                    }

                    .st8 {
                        fill: #404040;
                    }
                </style>
                <g id="title" transform="translate(0 0)">
                    <path id="path173196" class="st0" d="M23.35,30.71h5.73V2.21h-5.22l-8.8,15.53L6.22,2.21H1v28.5h5.77V14.37l6.43,11.11h3.65
		l6.5-11.18V30.71z" />
                    <path id="path173198" class="st1" d="M37.99,30.71L37.99,30.71v-8.99c0-3.51,2.85-6.39,6.39-6.39V9.84c-1.61,0-3.18,0.33-4.64,0.95
		c-1.39,0.58-2.67,1.46-3.76,2.56c-1.1,1.06-1.94,2.34-2.56,3.76c-0.62,1.46-0.91,3-0.91,4.6v8.99H37.99z" />
                    <path id="path173200" class="st2" d="M54.63,30.93c2.59,0,5-0.73,6.79-2.12c0.99-0.77,1.75-1.68,2.3-2.74
		c0.58-1.1,0.88-2.38,0.88-3.73c0-2.48-0.88-4.38-2.63-5.85c-1.5-1.21-3.47-1.97-5.55-2.81c-0.22-0.07-0.44-0.18-0.69-0.26l0,0
		c-1.46-0.58-2.85-1.1-3.73-1.72c-0.62-0.44-1.02-0.88-0.99-1.72c0-1.86,1.83-2.56,3.36-2.56c1.64,0,3.62,0.88,5.4,2.34l1.02,0.84
		l3.51-4.53l-0.95-0.8c-2.7-2.16-5.81-3.33-8.98-3.33c-2.48,0-4.78,0.84-6.5,2.3c-1.75,1.53-2.7,3.62-2.7,5.85
		c0,1.32,0.26,2.48,0.8,3.51c0.47,0.95,1.17,1.75,2.08,2.52c1.61,1.24,3.62,2.05,5.66,2.81c0.15,0.07,0.29,0.11,0.4,0.15
		c1.5,0.58,2.81,1.06,3.62,1.68c0.69,0.51,0.99,1.06,0.99,1.94c0,0.84-0.33,1.46-0.95,1.94c-0.73,0.51-1.83,0.77-3.1,0.77
		c-1.1,0-2.26-0.26-3.29-0.73c-1.13-0.55-2.12-1.32-2.89-2.27l-0.99-1.24l-3.76,4.53l0.77,0.8C47.18,29.36,50.76,30.93,54.63,30.93z
		" />
                    <path id="path173202" class="st3" d="M82.39,13.2c-1.75-1.75-4.05-2.7-6.54-2.7c-1.31,0-2.59,0.26-3.76,0.8V1.26l-5.48,1.83v15.86
		c-0.04,0.29-0.04,0.55-0.04,0.84h0.04v10.93h5.48V19.23c0.26-1.83,1.83-3.25,3.76-3.25c2.08,0,3.8,1.68,3.8,3.8v10.93h5.48V19.78
		C85.13,17.3,84.14,14.96,82.39,13.2z" />
                    <path id="path173204" class="st4"
                        d="M96.45,30.85c1.42,0,2.81-0.29,4.13-0.88c1.28-0.55,2.41-1.35,3.36-2.34l-3.87-3.65
		c-0.95,1.02-2.23,1.57-3.62,1.57c-1.79,0-3.36-0.95-4.24-2.34h14.5v-2.67c0-2.74-1.06-5.33-2.99-7.27
		c-1.94-1.94-4.53-3.03-7.27-3.03c-2.78,0-5.33,1.1-7.3,3.03c-1.94,1.94-2.99,4.53-2.99,7.27s1.06,5.33,2.99,7.27
		C91.12,29.76,93.68,30.85,96.45,30.85z M92.22,17.92c0.88-1.43,2.45-2.38,4.24-2.38c1.75,0,3.32,0.95,4.24,2.38H92.22z" />
                    <path id="path173206" class="st5" d="M123.69,13.39c-1.75-1.72-4.05-2.67-6.5-2.67c-1.31,0-2.56,0.26-3.69,0.77v-1.35h-5.48v8.95
		c-0.04,0.29-0.04,0.55-0.04,0.84h0.04v10.78h5.48V19.38c0.26-1.79,1.79-3.18,3.69-3.18c2.05,0,3.73,1.68,3.73,3.73v10.78h5.48
		V19.93C126.39,17.44,125.4,15.14,123.69,13.39z" />
                    <path id="path173208" class="st6" d="M128.66,24.61c0.55,1.24,1.28,2.38,2.23,3.33c0.99,0.95,2.08,1.72,3.32,2.23
		c1.28,0.55,2.67,0.8,4.05,0.8c1.39,0,2.78-0.26,4.05-0.8c1.24-0.51,2.34-1.28,3.32-2.23c0.95-0.95,1.68-2.08,2.23-3.33
		c0.55-1.28,0.8-2.63,0.8-4.06V2.83L143.19,1v10.38c-0.29-0.15-0.58-0.29-0.88-0.4c-1.28-0.55-2.63-0.8-4.05-0.8
		c-1.39,0-2.78,0.26-4.05,0.8c-1.24,0.51-2.34,1.28-3.32,2.23c-0.95,0.95-1.68,2.08-2.23,3.33c-0.51,1.28-0.8,2.63-0.8,4.02
		C127.86,21.97,128.15,23.33,128.66,24.61z M138.26,15.62c2.7,0,4.93,2.23,4.93,4.93c0,2.74-2.23,4.93-4.93,4.93
		c-2.7,0-4.93-2.19-4.93-4.93C133.33,17.85,135.56,15.62,138.26,15.62z" />
                    <path id="path173210" class="st7" d="M160.73,30.96c1.39,0,2.78-0.29,4.05-0.8c1.24-0.55,2.37-1.28,3.32-2.23
		c0.95-0.99,1.68-2.08,2.23-3.33c0.55-1.28,0.8-2.67,0.8-4.06c0-1.43-0.26-2.78-0.8-4.06c-0.55-1.24-1.28-2.38-2.23-3.33
		c-0.99-0.95-2.08-1.68-3.32-2.23c-1.28-0.55-2.67-0.8-4.05-0.8c-1.39,0-2.78,0.26-4.05,0.8c-1.24,0.55-2.34,1.28-3.32,2.23
		c-0.95,0.99-1.68,2.08-2.23,3.33c-0.51,1.28-0.8,2.63-0.8,4.06c0,1.39,0.29,2.78,0.8,4.06c0.55,1.24,1.28,2.34,2.23,3.33
		c0.99,0.95,2.08,1.68,3.32,2.23C157.96,30.67,159.35,30.96,160.73,30.96z M160.73,15.62c2.7,0,4.93,2.23,4.93,4.93
		s-2.23,4.93-4.93,4.93c-2.7,0-4.93-2.23-4.93-4.93S158.03,15.62,160.73,15.62z" />
                    <path id="path173212" class="st8" d="M182.42,31c3.4,0,6.61-1.68,8.58-4.53l-4.53-3.11c-0.91,1.35-2.45,2.16-4.05,2.16
		c-2.74,0-4.93-2.23-4.93-4.93c0-2.74,2.19-4.93,4.93-4.93c1.57,0,3.1,0.77,4.02,2.08l4.49-3.14c-0.95-1.35-2.23-2.45-3.65-3.22
		c-1.5-0.8-3.18-1.21-4.86-1.21c-1.42,0-2.78,0.26-4.05,0.8c-1.24,0.55-2.37,1.28-3.32,2.23c-0.95,0.99-1.72,2.08-2.23,3.33
		c-0.55,1.28-0.8,2.67-0.8,4.06s0.26,2.78,0.8,4.06c0.51,1.24,1.28,2.34,2.23,3.33c0.95,0.95,2.08,1.68,3.32,2.23
		C179.64,30.71,180.99,31,182.42,31z" />
                </g>
            </svg>
